<?xml version="1.0" standalone="no"?>
<!DOCTYPE svg PUBLIC "-//W3C//DTD SVG 20010904//EN"
 "http://www.w3.org/TR/2001/REC-SVG-20010904/DTD/svg10.dtd">
<svg version="1.0" xmlns="http://www.w3.org/2000/svg"
 width="3900.000000pt" height="3900.000000pt" viewBox="0 0 3900.000000 3900.000000"
 preserveAspectRatio="xMidYMid meet">
<metadata>
Created by potrace 1.11, written by Peter Selinger 2001-2013
</metadata>
<g transform="translate(0.000000,3900.000000) scale(0.100000,-0.100000)"
fill="#000000" stroke="none">
<path d="M28409 38924 c-2 -48 -5 -76 -13 -129 -4 -27 -9 -66 -11 -85 -2 -19
-7 -55 -10 -80 -3 -25 -7 -63 -10 -85 -2 -22 -6 -56 -9 -75 -3 -19 -7 -56 -11
-81 -3 -25 -7 -57 -10 -70 -2 -13 -6 -51 -10 -84 -3 -33 -12 -109 -20 -170 -8
-60 -17 -135 -20 -165 -3 -30 -8 -66 -10 -80 -2 -14 -7 -50 -10 -80 -4 -30 -8
-66 -10 -80 -2 -14 -9 -65 -15 -115 -6 -49 -13 -106 -16 -126 -2 -20 -7 -55
-9 -79 -2 -24 -7 -59 -10 -79 -5 -37 -10 -78 -20 -166 -3 -27 -8 -61 -10 -75
-2 -14 -7 -47 -10 -75 -3 -27 -7 -66 -10 -85 -2 -19 -11 -93 -20 -164 -9 -71
-17 -143 -20 -160 -2 -17 -7 -53 -10 -81 -3 -27 -8 -63 -10 -80 -5 -38 -13
-106 -20 -170 -4 -27 -8 -61 -10 -75 -7 -49 -14 -106 -20 -150 -11 -100 -16
-138 -25 -210 -5 -41 -12 -97 -15 -125 -3 -27 -7 -57 -10 -65 -2 -8 -6 -46
-10 -85 -3 -38 -8 -83 -11 -100 -6 -43 -13 -102 -20 -164 -3 -30 -7 -62 -9
-71 -2 -8 -6 -43 -10 -75 -4 -33 -8 -71 -10 -85 -2 -14 -7 -52 -11 -85 -3 -33
-8 -68 -10 -78 -2 -10 -6 -45 -9 -78 -4 -33 -8 -70 -11 -82 -2 -12 -6 -51 -10
-87 -3 -36 -8 -74 -10 -85 -3 -11 -7 -45 -10 -75 -3 -30 -7 -66 -9 -80 -2 -14
-7 -47 -10 -75 -3 -27 -12 -99 -20 -160 -8 -60 -17 -137 -20 -170 -3 -33 -8
-71 -10 -85 -3 -14 -7 -47 -11 -75 -3 -27 -7 -61 -9 -75 -2 -14 -7 -52 -10
-85 -4 -33 -8 -67 -10 -75 -2 -8 -7 -42 -10 -75 -4 -33 -19 -163 -35 -290 -16
-126 -31 -252 -35 -280 -3 -27 -7 -59 -9 -70 -2 -11 -7 -51 -10 -90 -4 -38 -9
-77 -11 -85 -2 -8 -6 -40 -10 -70 -3 -30 -7 -71 -10 -90 -11 -87 -15 -118 -20
-165 -3 -27 -8 -61 -10 -75 -2 -14 -6 -50 -10 -80 -4 -30 -8 -66 -10 -80 -2
-14 -7 -50 -10 -80 -3 -30 -8 -66 -10 -80 -2 -14 -7 -50 -10 -80 -3 -30 -8
-66 -10 -80 -2 -14 -7 -54 -10 -90 -4 -36 -8 -72 -10 -80 -2 -9 -6 -43 -10
-75 -4 -33 -8 -71 -10 -85 -2 -14 -7 -47 -10 -75 -3 -27 -10 -84 -15 -125 -6
-41 -12 -95 -15 -120 -21 -172 -46 -371 -50 -400 -4 -35 -19 -157 -29 -240 -3
-25 -8 -65 -11 -90 -9 -72 -14 -87 -27 -87 -21 -1 -145 -14 -165 -17 -10 -2
-49 -7 -86 -11 -37 -3 -76 -8 -86 -10 -10 -2 -42 -6 -72 -10 -30 -3 -61 -8
-69 -10 -8 -2 -37 -7 -64 -10 -27 -3 -88 -12 -135 -21 -47 -9 -102 -18 -121
-21 -82 -11 -434 -83 -630 -128 -210 -49 -573 -150 -790 -220 -212 -68 -657
-228 -755 -270 -16 -8 -104 -45 -195 -83 -168 -71 -392 -171 -439 -197 -14 -7
-96 -48 -181 -91 -235 -116 -459 -239 -728 -400 -45 -27 -90 -54 -100 -59 -68
-40 -439 -286 -542 -359 -75 -53 -338 -246 -365 -268 -76 -61 -140 -108 -148
-108 -6 0 -54 29 -107 64 -52 35 -169 112 -260 171 -339 222 -399 261 -555
364 -88 58 -164 108 -170 111 -5 3 -68 44 -140 91 -71 47 -254 167 -405 266
-151 99 -383 251 -515 337 -132 87 -306 202 -388 255 -81 53 -236 155 -345
226 -109 72 -297 195 -418 274 -120 79 -255 167 -299 196 -124 81 -402 263
-710 465 -154 101 -385 252 -513 337 -128 84 -235 153 -237 153 -3 0 1267
-1271 2820 -2825 l2826 -2825 67 68 c156 155 514 473 627 557 22 16 42 33 45
36 3 4 30 26 60 49 530 406 986 691 1525 955 127 61 248 120 270 129 22 10 49
21 60 26 11 5 45 20 75 33 30 13 120 50 200 81 80 32 159 64 175 71 44 19 433
149 555 186 94 28 551 149 558 148 1 0 15 2 30 5 133 29 361 75 402 81 25 3
63 10 85 15 22 5 64 11 94 15 30 4 62 8 71 10 10 2 75 11 146 20 71 9 140 18
154 20 14 2 60 6 102 10 43 3 91 8 107 10 34 4 179 15 266 20 33 2 159 6 280
10 121 3 221 8 222 9 6 5 4 10699 -2 10704 -3 3 -6 -8 -6 -24z"/>
<path d="M25790 27012 c-52 -19 -108 -40 -125 -47 -16 -7 -52 -19 -78 -26 -27
-8 -53 -19 -58 -25 -9 -11 72 -245 236 -689 18 -49 91 -247 160 -440 70 -192
131 -360 136 -373 8 -22 9 -22 51 -6 24 9 52 20 63 24 11 5 74 28 140 51 66
23 121 43 123 44 2 2 -60 178 -78 220 -5 11 -20 52 -33 90 -14 39 -44 120 -66
180 -23 61 -41 114 -41 119 0 4 -6 22 -14 39 -8 18 -22 55 -31 82 -9 28 -22
64 -30 80 -7 17 -68 183 -135 370 -67 187 -123 340 -124 341 0 0 -44 -15 -96
-34z"/>
<path d="M19683 25967 c-161 -219 -294 -412 -455 -662 -283 -440 -610 -1066
-817 -1565 -29 -69 -57 -134 -62 -145 -21 -47 -121 -314 -177 -470 -51 -144
-91 -268 -178 -545 -14 -48 -92 -332 -99 -364 -3 -10 -14 -55 -25 -100 -12
-45 -25 -99 -30 -121 -4 -22 -19 -92 -34 -155 -15 -63 -29 -128 -32 -145 -3
-16 -12 -64 -21 -105 -8 -41 -17 -86 -19 -100 -8 -50 -14 -86 -19 -110 -6 -30
-8 -38 -40 -255 -29 -193 -31 -209 -41 -285 -10 -86 -11 -100 -19 -180 -4 -41
-9 -77 -11 -79 -5 -6 -10 -7 -97 -15 -37 -4 -78 -9 -90 -12 -12 -2 -46 -6 -77
-9 -31 -3 -64 -7 -75 -9 -11 -2 -47 -7 -80 -11 -33 -4 -71 -8 -85 -10 -14 -1
-50 -6 -80 -9 -30 -4 -66 -9 -80 -11 -14 -2 -50 -7 -80 -10 -30 -4 -66 -8 -80
-10 -14 -2 -50 -6 -80 -10 -50 -5 -85 -10 -160 -20 -14 -2 -50 -6 -80 -10 -61
-7 -122 -14 -160 -20 -14 -2 -54 -7 -90 -10 -36 -4 -72 -8 -80 -10 -8 -1 -55
-8 -105 -14 -49 -6 -216 -26 -370 -46 -154 -19 -300 -37 -325 -40 -126 -14
-220 -26 -250 -30 -50 -8 -186 -25 -240 -30 -30 -3 -66 -8 -80 -10 -14 -2 -47
-6 -75 -10 -27 -3 -66 -8 -85 -10 -19 -3 -59 -7 -88 -10 -29 -4 -61 -8 -70
-10 -9 -1 -46 -6 -82 -10 -36 -4 -73 -9 -82 -10 -9 -2 -45 -6 -79 -10 -71 -7
-120 -13 -158 -20 -14 -2 -51 -6 -81 -10 -30 -3 -71 -8 -90 -10 -19 -3 -55 -7
-80 -10 -73 -9 -123 -16 -150 -20 -14 -2 -50 -7 -80 -10 -58 -6 -74 -8 -205
-25 -44 -5 -100 -12 -125 -15 -25 -3 -79 -10 -120 -15 -41 -5 -100 -12 -130
-15 -30 -3 -66 -7 -80 -10 -14 -2 -43 -7 -65 -9 -22 -3 -76 -10 -120 -15 -44
-6 -102 -13 -130 -16 -62 -7 -122 -15 -155 -20 -14 -2 -52 -6 -85 -10 -33 -3
-67 -8 -75 -10 -8 -2 -46 -6 -85 -10 -38 -3 -77 -8 -85 -10 -8 -2 -42 -7 -75
-10 -69 -8 -100 -11 -210 -25 -114 -15 -144 -19 -200 -25 -27 -3 -61 -8 -75
-10 -14 -3 -52 -7 -85 -10 -33 -4 -71 -8 -85 -10 -51 -8 -108 -15 -235 -30
-71 -8 -146 -17 -165 -20 -19 -2 -57 -7 -85 -10 -27 -4 -61 -8 -75 -10 -14 -2
-122 -16 -240 -30 -215 -25 -273 -33 -320 -40 -14 -2 -47 -7 -75 -10 -27 -3
-66 -7 -85 -10 -19 -2 -57 -7 -85 -10 -99 -12 -129 -15 -154 -20 -14 -2 -51
-6 -81 -10 -30 -3 -71 -8 -90 -10 -19 -3 -60 -8 -90 -11 -30 -3 -64 -8 -75 -9
-38 -6 -200 -26 -245 -31 -25 -3 -56 -7 -70 -9 -14 -2 -50 -7 -80 -10 -30 -3
-73 -8 -95 -12 -22 -3 -48 -5 -57 -5 -10 0 -18 -3 -18 -9 0 -5 20 -10 45 -10
25 -1 48 -2 53 -3 12 -3 103 -16 152 -21 25 -3 61 -7 80 -10 19 -3 51 -7 70
-9 71 -9 136 -17 170 -21 19 -3 55 -7 80 -10 25 -3 61 -7 80 -10 19 -2 60 -7
90 -10 30 -4 66 -8 80 -10 14 -3 50 -7 80 -10 30 -3 66 -8 80 -10 14 -3 48 -7
75 -10 67 -8 591 -73 635 -79 19 -3 96 -12 170 -21 74 -9 146 -18 160 -20 24
-3 82 -10 165 -20 72 -8 130 -16 155 -20 14 -2 52 -7 84 -10 33 -3 71 -7 85
-9 14 -3 51 -8 81 -11 30 -3 66 -8 80 -10 14 -2 50 -7 80 -10 30 -4 70 -9 88
-11 17 -2 47 -6 65 -8 17 -2 55 -7 82 -10 28 -4 66 -9 85 -11 19 -2 60 -7 90
-10 30 -4 66 -8 80 -11 24 -4 142 -18 240 -29 25 -3 59 -7 75 -10 17 -2 89
-11 160 -20 72 -8 146 -17 165 -20 111 -15 354 -44 410 -50 36 -4 67 -8 70
-10 3 -2 38 -6 78 -10 41 -3 83 -8 95 -11 12 -2 47 -6 77 -10 30 -3 66 -7 80
-9 64 -9 109 -15 160 -21 30 -3 69 -8 85 -10 17 -2 53 -6 80 -9 28 -3 57 -8
65 -10 8 -2 44 -6 80 -10 36 -3 76 -7 90 -9 14 -2 51 -7 84 -11 32 -4 68 -8
80 -10 11 -2 44 -6 71 -10 109 -12 141 -16 175 -21 19 -3 53 -8 75 -10 22 -2
56 -6 75 -9 19 -2 55 -7 80 -10 25 -2 61 -7 80 -10 42 -6 100 -13 160 -20 25
-2 117 -14 205 -25 88 -11 183 -22 210 -25 28 -3 61 -8 75 -10 14 -3 48 -7 75
-10 52 -6 119 -14 170 -20 32 -5 155 -20 240 -30 28 -3 61 -8 75 -10 14 -2 50
-6 81 -10 31 -3 65 -7 75 -9 11 -2 50 -7 88 -10 38 -4 72 -9 75 -10 3 -2 38
-7 76 -10 39 -4 81 -9 95 -11 14 -2 48 -6 75 -9 28 -3 61 -8 75 -11 14 -2 52
-7 85 -10 33 -3 75 -8 93 -11 66 -9 98 -13 157 -20 33 -3 68 -8 79 -10 10 -2
51 -6 90 -10 39 -3 73 -8 76 -9 3 -2 37 -6 75 -10 100 -9 102 -10 103 -53 1
-20 4 -46 6 -57 2 -11 7 -49 11 -85 3 -36 8 -76 10 -90 2 -14 7 -50 10 -80 4
-30 9 -64 11 -74 2 -11 6 -40 9 -65 3 -25 7 -57 10 -71 3 -14 8 -45 11 -70 2
-25 6 -52 9 -60 2 -8 7 -33 10 -55 3 -22 8 -51 11 -65 2 -14 6 -36 9 -50 3
-14 7 -36 10 -50 2 -14 7 -41 10 -60 3 -19 9 -53 15 -75 5 -22 24 -107 41
-190 25 -125 53 -236 153 -625 87 -334 330 -1022 488 -1380 66 -150 93 -208
134 -295 21 -44 39 -82 39 -85 3 -17 203 -404 295 -570 74 -133 87 -156 114
-199 15 -22 26 -43 26 -45 0 -2 28 -51 63 -108 230 -374 463 -714 710 -1032
l84 -109 -92 -141 c-260 -399 -334 -512 -344 -523 -6 -7 -11 -14 -11 -17 0 -3
-31 -51 -69 -108 -65 -99 -192 -292 -366 -558 -45 -69 -133 -204 -197 -300
-152 -232 -295 -449 -386 -590 -42 -63 -127 -194 -190 -290 -63 -96 -286 -436
-495 -755 -209 -319 -423 -645 -475 -725 -53 -80 -147 -224 -210 -320 -63 -96
-141 -215 -174 -264 -32 -49 -58 -91 -58 -93 0 -2 -5 -9 -10 -16 -10 -10 -212
-315 -227 -342 -14 -24 184 174 2843 2832 l2792 2791 -65 69 c-346 362 -572
629 -847 1005 -351 479 -715 1126 -960 1708 -154 368 -336 901 -401 1180 -2 8
-20 83 -40 165 -20 83 -39 159 -41 170 -2 11 -13 65 -24 120 -11 55 -22 111
-25 125 -9 43 -34 193 -40 235 -4 22 -8 47 -10 55 -2 8 -7 35 -10 60 -3 25 -8
61 -10 80 -3 19 -8 51 -10 70 -2 19 -6 51 -9 70 -2 19 -7 62 -11 95 -4 33 -8
76 -10 95 -29 264 -40 504 -39 875 0 286 6 501 18 650 5 59 16 183 22 240 4
50 32 278 39 325 2 14 7 48 11 75 3 28 8 59 10 70 2 11 9 49 14 85 17 107 70
379 92 470 11 47 21 92 23 100 14 65 89 352 110 420 14 47 27 92 29 100 27
105 185 558 236 675 4 11 20 52 35 90 15 39 33 84 40 100 8 17 44 98 80 180
87 196 264 549 335 670 10 17 26 46 37 65 73 135 258 429 435 690 l17 25 -763
762 -762 762 -61 -82z"/>
<path d="M23439 25707 c-18 -13 -116 -96 -133 -112 -6 -6 -41 -34 -78 -64 -38
-30 -68 -56 -68 -58 0 -4 175 -217 227 -276 23 -27 133 -158 417 -497 76 -91
157 -187 181 -215 23 -27 81 -96 127 -152 l85 -102 84 71 c46 38 106 89 133
111 27 23 58 48 68 55 18 13 17 15 -14 55 -35 45 -62 77 -118 141 -20 23 -92
108 -160 191 -69 82 -135 161 -147 175 -12 14 -87 104 -168 200 -205 244 -212
252 -315 375 -50 61 -94 111 -98 112 -4 1 -14 -3 -23 -10z"/>
<path d="M21617 23628 c-46 -75 -177 -308 -177 -315 0 -4 75 -51 167 -103 91
-52 187 -107 212 -122 25 -15 57 -33 71 -41 14 -7 160 -91 325 -187 165 -95
314 -181 330 -190 17 -9 86 -49 153 -89 68 -39 127 -71 131 -71 8 0 40 48 80
120 8 14 39 67 69 118 29 52 52 95 50 96 -9 7 -281 166 -284 166 -2 0 -32 17
-66 38 -35 21 -88 52 -118 69 -30 17 -196 112 -368 212 -172 100 -329 191
-350 202 -20 12 -74 43 -120 70 -45 27 -85 49 -87 49 -3 0 -11 -10 -18 -22z"/>
<path d="M29910 22928 c-80 -33 -158 -66 -175 -73 -16 -7 -149 -61 -295 -120
-146 -60 -377 -154 -515 -210 -137 -56 -347 -141 -465 -190 -118 -48 -228 -93
-245 -100 -31 -14 -376 -153 -695 -282 -102 -41 -198 -80 -215 -88 -16 -7 -77
-32 -135 -55 -58 -23 -118 -48 -135 -55 -16 -7 -138 -56 -270 -109 -132 -54
-249 -101 -260 -106 -23 -10 -72 -31 -305 -125 -91 -37 -178 -73 -195 -80 -16
-7 -147 -60 -290 -118 -143 -58 -438 -178 -655 -267 -217 -88 -413 -168 -435
-177 -22 -8 -53 -21 -70 -28 -16 -7 -102 -42 -190 -78 -157 -64 -251 -102
-625 -255 -102 -41 -288 -117 -413 -167 -194 -79 -224 -94 -200 -100 43 -10
492 -105 528 -110 11 -2 97 -20 190 -40 94 -20 190 -40 215 -45 25 -5 56 -12
70 -15 14 -3 39 -8 55 -11 17 -3 71 -14 120 -24 50 -11 105 -22 124 -25 19 -3
37 -8 41 -10 3 -2 29 -7 56 -11 27 -3 52 -8 55 -10 4 -2 51 -13 105 -23 55
-11 196 -40 315 -65 119 -25 227 -47 240 -50 13 -2 57 -12 96 -20 40 -9 87
-18 105 -21 18 -3 40 -8 48 -10 8 -3 146 -31 305 -64 160 -33 346 -72 415 -86
69 -15 139 -29 155 -32 17 -3 35 -6 40 -8 6 -1 28 -5 50 -10 64 -12 72 -20 79
-75 4 -27 7 -52 7 -55 0 -2 5 -19 10 -37 5 -18 12 -46 14 -63 6 -32 53 -261
85 -410 29 -137 69 -329 91 -440 11 -55 22 -109 24 -120 3 -11 9 -40 15 -65 5
-25 37 -175 69 -335 33 -159 62 -301 65 -315 6 -31 82 -396 97 -465 10 -48 16
-78 24 -120 2 -11 13 -63 24 -115 11 -52 22 -107 25 -123 3 -15 7 -35 10 -45
3 -9 7 -28 10 -42 2 -14 12 -61 21 -105 18 -86 22 -106 30 -145 32 -166 69
-336 74 -342 4 -4 29 47 55 115 27 67 53 126 57 131 5 6 9 16 9 24 0 7 11 38
25 68 14 30 25 57 25 60 0 3 6 20 14 37 8 18 49 118 91 222 86 215 87 217 108
265 8 19 29 71 47 115 18 44 38 94 45 110 7 17 32 77 55 135 23 58 48 119 55
135 7 17 68 165 135 330 214 529 251 620 260 640 5 11 30 72 56 135 25 63 52
129 59 145 7 17 52 127 99 245 48 118 91 224 96 235 9 20 316 773 552 1355 66
162 126 308 134 324 8 16 14 33 14 38 0 4 9 27 19 51 11 23 54 128 96 232 77
189 128 314 330 810 58 143 149 366 201 495 52 129 99 244 104 255 11 24 53
126 80 196 11 27 16 49 12 48 -4 -1 -72 -28 -152 -61z"/>
<path d="M20615 21038 c-4 -24 -9 -54 -12 -68 -35 -190 -49 -280 -44 -280 3 0
47 -7 96 -16 131 -22 138 -23 165 -29 14 -3 68 -12 120 -21 52 -9 104 -18 115
-20 65 -13 247 -44 285 -49 24 -4 47 -8 50 -10 3 -2 24 -6 46 -9 22 -4 51 -9
64 -11 14 -3 66 -12 115 -21 50 -8 99 -17 110 -18 11 -2 36 -7 55 -10 137 -23
329 -57 346 -61 18 -4 22 1 28 33 3 20 8 51 11 67 19 102 35 195 40 229 3 21
7 42 10 46 6 9 -7 12 -140 35 -128 22 -144 24 -200 35 -27 5 -66 12 -85 14
-19 3 -46 8 -60 11 -28 5 -151 27 -315 56 -60 10 -120 21 -133 24 -13 2 -78
14 -145 25 -67 11 -133 23 -147 26 -14 2 -40 7 -59 10 -18 3 -43 8 -55 10 -11
2 -61 11 -111 19 -49 9 -102 18 -117 21 -24 5 -27 2 -33 -38z"/>
<path d="M22119 18596 c-2 -2 -22 -6 -44 -9 -22 -4 -65 -11 -95 -17 -30 -6
-71 -13 -90 -16 -19 -3 -69 -11 -110 -19 -79 -15 -234 -43 -285 -51 -16 -3
-66 -11 -110 -19 -44 -8 -96 -17 -115 -20 -19 -3 -42 -8 -50 -10 -8 -2 -37 -7
-65 -11 -27 -3 -52 -8 -55 -9 -3 -2 -26 -6 -50 -10 -37 -5 -148 -25 -405 -71
-16 -2 -40 -7 -52 -9 -29 -5 -45 -14 -39 -24 3 -4 10 -36 15 -72 6 -35 13 -73
15 -84 2 -11 11 -64 21 -118 17 -97 18 -98 44 -93 14 3 54 10 88 16 35 6 73
13 85 15 13 2 77 14 143 25 66 12 131 23 145 26 14 2 41 7 60 10 19 3 42 7 50
9 8 2 29 6 45 9 58 9 210 36 235 41 26 5 45 9 140 25 82 14 99 17 165 29 33 6
78 13 100 16 22 4 47 8 55 10 8 2 31 7 50 10 41 7 148 26 170 30 8 2 20 4 26
4 8 1 7 22 -3 74 -7 39 -16 86 -19 102 -7 43 -26 147 -29 165 -2 8 -4 23 -4
33 -1 15 -21 24 -32 13z"/>
<path d="M22779 16476 c-30 -18 -75 -45 -100 -58 -81 -47 -232 -134 -429 -248
-107 -62 -239 -138 -293 -169 -145 -83 -187 -107 -360 -206 -86 -49 -157 -94
-157 -98 0 -5 25 -52 57 -105 31 -53 67 -117 80 -142 13 -25 31 -55 41 -68
l17 -22 185 106 c102 59 206 119 231 133 61 35 640 370 659 382 8 5 83 48 165
95 83 47 151 87 153 89 2 1 -7 20 -19 41 -20 36 -170 297 -173 301 0 1 -26
-13 -57 -31z"/>
<path d="M23708 14196 c-268 -319 -501 -597 -518 -616 -16 -19 -30 -37 -29
-40 0 -3 26 -26 57 -52 112 -93 128 -106 182 -152 30 -25 57 -45 61 -44 6 3
120 136 224 262 22 27 45 54 50 60 6 6 59 70 119 141 59 72 125 150 146 175
38 45 149 177 378 450 l122 145 -23 18 c-12 10 -33 28 -47 40 -67 58 -149 127
-190 159 l-45 35 -487 -581z"/>
<path d="M26059 13592 c-5 -15 -12 -34 -16 -42 -3 -8 -7 -19 -9 -25 -1 -5 -18
-53 -37 -105 -19 -52 -108 -295 -196 -540 -89 -245 -166 -454 -171 -465 -34
-78 -110 -309 -103 -316 9 -9 338 -129 354 -129 5 0 12 6 14 13 16 47 228 636
235 652 9 21 31 82 193 530 58 160 107 297 109 305 5 15 -12 23 -270 115 l-93
34 -10 -27z"/>
<path d="M22633 11586 c-569 -569 -758 -764 -748 -771 7 -6 68 -51 136 -101
306 -224 682 -470 974 -635 22 -12 87 -49 145 -82 114 -65 576 -300 705 -359
248 -114 529 -231 778 -324 126 -48 579 -201 632 -214 17 -4 71 -20 120 -35
103 -31 92 -28 326 -89 97 -25 187 -47 200 -50 13 -2 51 -11 84 -19 33 -9 71
-18 85 -21 14 -2 36 -7 50 -10 14 -3 36 -8 50 -10 14 -3 36 -7 50 -10 14 -3
75 -15 135 -26 61 -12 130 -25 155 -30 45 -9 130 -24 205 -35 22 -3 51 -7 65
-10 46 -7 175 -25 215 -30 22 -2 56 -7 75 -9 19 -3 55 -7 80 -10 25 -3 72 -8
105 -12 33 -5 65 -7 72 -6 14 3 19 -15 28 -98 4 -30 9 -64 10 -75 2 -11 7 -45
10 -75 3 -30 12 -109 21 -175 9 -66 18 -138 20 -160 6 -47 21 -173 29 -230 6
-49 53 -433 61 -495 3 -25 7 -58 9 -75 4 -37 15 -120 20 -160 12 -95 27 -214
30 -252 3 -24 7 -56 9 -71 3 -15 8 -52 11 -82 3 -30 8 -66 10 -80 3 -23 7 -51
20 -160 3 -19 7 -59 11 -88 3 -29 7 -62 9 -72 2 -10 7 -50 10 -87 4 -37 8 -75
10 -83 2 -8 7 -42 10 -75 4 -33 8 -71 10 -85 4 -23 9 -66 20 -160 2 -19 9 -71
14 -115 6 -44 13 -102 16 -130 3 -27 7 -61 10 -75 2 -14 7 -45 9 -70 3 -25 21
-173 41 -330 19 -157 38 -305 41 -330 6 -50 13 -109 19 -155 3 -16 7 -52 10
-80 6 -54 12 -106 20 -170 3 -22 10 -76 15 -120 6 -44 13 -96 15 -115 3 -19 7
-53 10 -75 3 -38 7 -63 20 -160 7 -50 15 -120 19 -160 9 -80 17 -152 21 -175
3 -14 7 -47 10 -75 8 -66 15 -124 20 -155 2 -14 7 -52 10 -85 3 -33 17 -145
30 -250 14 -104 27 -210 30 -235 3 -25 7 -61 10 -80 3 -19 12 -93 20 -165 9
-71 18 -143 20 -160 8 -58 24 -191 30 -245 3 -30 8 -66 10 -80 3 -23 11 -82
21 -170 2 -19 6 -51 9 -70 9 -69 19 -145 29 -240 4 -30 9 -71 12 -90 2 -19 7
-51 9 -70 2 -19 6 -53 9 -75 8 -68 26 -208 31 -245 3 -19 7 -57 10 -85 6 -52
14 -122 20 -165 2 -14 7 -45 10 -70 7 -65 64 -526 71 -585 4 -27 10 -75 14
-105 l7 -55 2 75 c3 176 1 10643 -2 10646 -2 2 -101 6 -220 9 -118 3 -237 7
-264 9 -26 3 -97 7 -158 11 -60 3 -121 8 -135 10 -14 2 -54 6 -90 10 -79 8
-134 14 -180 20 -19 2 -73 9 -120 15 -47 6 -96 13 -110 16 -14 2 -43 6 -65 9
-22 3 -49 7 -60 9 -11 2 -40 7 -65 11 -51 8 -74 12 -110 20 -14 2 -40 7 -59
10 -19 3 -37 8 -40 10 -4 2 -25 6 -47 9 -22 4 -49 8 -59 10 -540 113 -1177
312 -1620 506 -572 250 -1060 515 -1475 800 -52 36 -106 72 -120 81 l-25 16
-762 -761z"/>
</g>
</svg>
